Coordinates
version=1
nRows=14
nColumns=63
inDegrees=yes

Units are S.I. units (second, meters, Newtons, ...)
If the header above contains a line with 'inDegrees', this indicates whether rotational values are in degrees (yes) or radians (no).

endheader
time	pelvis_tilt	pelvis_list	pelvis_rotation	pelvis_tx	pelvis_ty	pelvis_tz	hip_flexion_r	hip_adduction_r	hip_rotation_r	knee_angle_r	knee_angle_r_beta	ankle_angle_r	subtalar_angle_r	mtp_angle_r	hip_flexion_l	hip_adduction_l	hip_rotation_l	knee_angle_l	knee_angle_l_beta	ankle_angle_l	subtalar_angle_l	mtp_angle_l	L5_S1_Flex_Ext	L5_S1_Lat_Bending	L5_S1_axial_rotation	L4_L5_Flex_Ext	L4_L5_Lat_Bending	L4_L5_axial_rotation	L3_L4_Flex_Ext	L3_L4_Lat_Bending	L3_L4_axial_rotation	L2_L3_Flex_Ext	L2_L3_Lat_Bending	L2_L3_axial_rotation	L1_L2_Flex_Ext	L1_L2_Lat_Bending	L1_L2_axial_rotation	L1_T12_Flex_Ext	L1_T12_Lat_Bending	L1_T12_axial_rotation	Abs_r3	Abs_r2	Abs_r1	Abs_t1	Abs_t2	neck_flexion	neck_bending	neck_rotation	arm_flex_r	arm_add_r	arm_rot_r	elbow_flex_r	pro_sup_r	wrist_flex_r	wrist_dev_r	arm_flex_l	arm_add_l	arm_rot_l	elbow_flex_l	pro_sup_l	wrist_flex_l	wrist_dev_l
3.593220	5.629045	-11.603349	96.361070	0.223344	0.822407	0.659556	8.194634	6.873538	7.525985	5.628248	0.098231	37.003184	-14.242345	0.000000	6.655001	-6.108872	20.684107	2.358871	0.041170	37.048083	-6.698506	0.000000	-0.036249	0.205059	-0.654277	-0.067317	0.272729	-0.695170	-0.059553	0.498581	-0.695170	-0.041429	0.498581	-0.572493	-0.033660	0.418157	-0.531600	-0.020712	0.317637	-0.490708	-0.258920	2.319672	-3.638894	0.000000	0.000000	25.020813	0.440209	-7.171998	7.592065	-15.214668	115.935795	18.742194	15.070077	-0.496768	-4.336200	5.299143	-11.973935	139.185228	2.762192	2.809443	-9.264510	-23.277142
3.610169	5.605287	-11.511773	96.545092	0.222598	0.822701	0.659871	8.049917	6.790164	7.132034	5.546939	0.096812	36.761393	-14.211553	0.000000	6.554656	-6.058287	20.949685	2.246854	0.039215	36.811411	-6.800408	0.000000	-0.034576	0.223333	-0.609575	-0.064211	0.297033	-0.647673	-0.056805	0.543013	-0.647673	-0.039517	0.543013	-0.533378	-0.032107	0.455421	-0.495280	-0.019757	0.345943	-0.457181	-0.246972	2.526391	-3.390272	0.000000	0.000000	25.179533	0.210048	-7.214363	7.519010	-15.478720	115.348492	18.900462	15.606249	-0.598651	-4.422137	5.622641	-11.771355	140.058838	2.637618	2.945994	-8.528701	-22.962790
3.627119	5.607476	-11.448000	96.791174	0.221669	0.822929	0.660204	7.934513	6.713905	6.629785	5.475856	0.095572	36.510816	-14.121551	0.000000	6.502253	-6.016629	21.274810	2.150714	0.037537	36.565196	-6.926045	0.000000	-0.028821	0.245872	-0.590465	-0.053524	0.327010	-0.627370	-0.047351	0.597813	-0.627370	-0.032940	0.597813	-0.516657	-0.026763	0.501382	-0.479753	-0.016469	0.380856	-0.442849	-0.205868	2.781354	-3.283992	0.000000	0.000000	25.416137	-0.030534	-7.257952	7.441163	-15.763448	114.756942	19.036714	16.070442	-0.710990	-4.514537	5.904207	-11.522086	141.018808	2.466789	3.074060	-7.707365	-22.505863
3.644068	5.615384	-11.410407	97.067548	0.220593	0.823100	0.660513	7.845577	6.629797	6.074072	5.420838	0.094611	36.269160	-13.984216	0.000000	6.475987	-5.969456	21.641339	2.047827	0.035741	36.306935	-7.070219	0.000000	-0.017911	0.270564	-0.594967	-0.033262	0.359850	-0.632152	-0.029426	0.657849	-0.632152	-0.020470	0.657849	-0.520596	-0.016632	0.551734	-0.483411	-0.010234	0.419103	-0.446225	-0.127935	3.060673	-3.309028	0.000000	0.000000	25.723534	-0.268417	-7.248243	7.362473	-16.063305	114.173185	19.160181	16.445519	-0.805202	-4.578214	6.145256	-11.241847	142.025166	2.310948	3.168673	-6.871619	-21.926042
3.661017	5.631465	-11.383523	97.346268	0.219397	0.823250	0.660764	7.770854	6.555416	5.636178	5.385563	0.093996	35.993941	-14.024043	0.000000	6.449473	-5.922002	22.140952	1.931842	0.033717	35.995808	-7.386727	0.000000	-0.003057	0.298431	-0.614498	-0.005676	0.396913	-0.652904	-0.005022	0.725605	-0.652904	-0.003493	0.725605	-0.537686	-0.002838	0.608561	-0.499279	-0.001746	0.462270	-0.460873	-0.021832	3.375912	-3.417653	0.000000	0.000000	26.084129	-0.563621	-7.194809	7.281321	-16.386705	113.605343	19.285486	16.525166	-0.837088	-4.543038	6.358807	-10.924091	143.017363	2.207279	3.264420	-6.056129	-21.228165
3.677966	5.660425	-11.361302	97.643527	0.218084	0.823392	0.660953	7.709262	6.484387	5.167598	5.372627	0.093770	35.757050	-14.021656	0.000000	6.430015	-5.879794	22.666633	1.820878	0.031780	35.695722	-7.699606	0.000000	0.015045	0.330293	-0.661458	0.027940	0.439289	-0.702799	0.024717	0.803073	-0.702799	0.017195	0.803073	-0.578776	0.013971	0.673533	-0.537435	0.008597	0.511623	-0.496093	0.107463	3.736336	-3.678830	0.000000	0.000000	26.470395	-0.844333	-7.005436	7.259216	-16.705799	113.271373	19.400597	16.626880	-0.845020	-4.469426	6.517682	-10.574145	144.066411	2.123743	3.338165	-5.217774	-20.397693
3.694915	5.684959	-11.334312	97.925636	0.216704	0.823569	0.661051	7.647492	6.412953	4.783733	5.378308	0.093869	35.512824	-14.138631	0.000000	6.387679	-5.830777	23.323319	1.694006	0.029566	35.353977	-8.183553	0.000000	0.034955	0.364495	-0.725076	0.064916	0.484778	-0.770393	0.057428	0.886232	-0.770393	0.039951	0.886232	-0.634442	0.032460	0.743277	-0.589124	0.019974	0.564602	-0.543807	0.249683	4.123236	-4.032656	0.000000	0.000000	26.855686	-1.145681	-6.719462	7.296660	-16.997635	113.319814	19.478107	16.564165	-0.761461	-4.360946	6.616730	-10.195456	144.932172	2.071094	3.422574	-4.363928	-19.462288
3.711864	5.701781	-11.300203	98.185451	0.215280	0.823809	0.661073	7.597566	6.332578	4.369261	5.430022	0.094772	35.316089	-14.215543	0.000000	6.332074	-5.772748	23.934268	1.573934	0.027470	35.034480	-8.622555	0.000000	0.054878	0.401324	-0.802453	0.101913	0.533761	-0.852606	0.090158	0.975779	-0.852606	0.062720	0.975779	-0.702146	0.050959	0.818380	-0.651993	0.031357	0.621651	-0.601840	0.391985	4.539857	-4.463003	0.000000	0.000000	27.210551	-1.422950	-6.299753	7.398569	-17.273210	113.652270	19.543954	16.559967	-0.642616	-4.200468	6.679986	-9.788572	145.929138	2.025214	3.486725	-3.523233	-18.406835
3.728814	5.699422	-11.259311	98.393489	0.213858	0.824135	0.660996	7.561077	6.235422	3.944623	5.535299	0.096609	35.174745	-14.245396	0.000000	6.263510	-5.696572	24.383602	1.473462	0.025717	34.773737	-8.899552	0.000000	0.073521	0.439851	-0.884210	0.136536	0.585002	-0.939473	0.120788	1.069453	-0.939473	0.084027	1.069453	-0.773683	0.068272	0.896944	-0.718420	0.042010	0.681329	-0.663157	0.525155	4.975680	-4.917709	0.000000	0.000000	27.515652	-1.655629	-5.755944	7.557838	-17.542805	114.235291	19.611707	16.615639	-0.510064	-4.032965	6.721490	-9.361955	147.036566	1.982251	3.565017	-2.688397	-17.303486
3.745763	5.692595	-11.199802	98.574238	0.212411	0.824601	0.660834	7.521529	6.137590	3.483172	5.679247	0.099122	35.056300	-14.256129	0.000000	6.166664	-5.614408	24.933354	1.372596	0.023956	34.496416	-9.333192	0.000000	0.087954	0.481922	-0.969242	0.163340	0.640956	-1.029819	0.144500	1.171745	-1.029819	0.100523	1.171745	-0.848086	0.081675	0.982735	-0.787509	0.050257	0.746497	-0.726931	0.628250	5.451596	-5.390631	0.000000	0.000000	27.768332	-1.805976	-5.107598	7.796475	-17.782922	115.295522	19.619342	16.647031	-0.311874	-3.885364	6.773476	-8.907392	148.292608	1.939187	3.673119	-1.898045	-16.118958
3.762712	5.666960	-11.128847	98.698427	0.210990	0.825220	0.660596	7.491913	6.022787	2.943837	5.872732	0.102499	34.999081	-14.123094	0.000000	6.054040	-5.516701	25.301721	1.289661	0.022509	34.278563	-9.591082	0.000000	0.098222	0.525635	-1.044193	0.182409	0.699095	-1.109455	0.161370	1.278029	-1.109455	0.112258	1.278029	-0.913669	0.091209	1.071875	-0.848407	0.056124	0.814209	-0.783145	0.701593	5.946089	-5.807486	0.000000	0.000000	27.971380	-1.854840	-4.411192	8.073557	-18.017738	116.572504	19.598022	16.781655	-0.141865	-3.793035	6.857987	-8.446992	149.656011	1.902024	3.829605	-1.156516	-15.001166
3.779661	5.619549	-11.045754	98.751543	0.209626	0.825999	0.660287	7.461817	5.889871	2.358871	6.092580	0.106336	34.988333	-13.846330	0.000000	5.919208	-5.403899	25.467283	1.215558	0.021215	34.114550	-9.665867	0.000000	0.104587	0.570755	-1.100662	0.194229	0.759104	-1.169454	0.171827	1.387733	-1.169454	0.119533	1.387733	-0.963080	0.097120	1.163883	-0.894288	0.059761	0.884099	-0.825497	0.747057	6.456492	-6.121554	0.000000	0.000000	28.129308	-1.777367	-3.682349	8.365193	-18.252087	117.984989	19.538416	17.043450	-0.046342	-3.762798	6.978030	-7.988745	151.143317	1.861185	4.011271	-0.548850	-14.037926
3.796610	5.542249	-10.941486	98.727187	0.208373	0.826929	0.659914	7.413595	5.741334	1.891153	6.323194	0.110361	34.982286	-13.608123	0.000000	5.750311	-5.270028	25.550486	1.151590	0.020099	33.974781	-9.724712	0.000000	0.106661	0.615867	-1.135440	0.198080	0.819103	-1.206405	0.175233	1.497419	-1.206405	0.121903	1.497419	-0.993510	0.099045	1.255876	-0.922545	0.060946	0.953978	-0.851580	0.761867	6.966810	-6.314978	0.000000	0.000000	28.245681	-1.563687	-2.961789	8.660903	-18.479488	119.488292	19.429823	17.434922	-0.064765	-3.806620	7.120670	-7.547950	152.866853	1.784814	4.110649	-0.159788	-13.314229
3.813559	5.432381	-10.812775	98.608737	0.207238	0.827985	0.659505	7.344872	5.573982	1.520611	6.559522	0.114485	34.975264	-13.372096	0.000000	5.534146	-5.113824	25.625489	1.076077	0.018781	33.814527	-9.894485	0.000000	0.105244	0.661167	-1.144801	0.195449	0.879353	-1.216351	0.172906	1.607562	-1.216351	0.120284	1.607562	-1.001701	0.097730	1.348253	-0.930151	0.060137	1.024148	-0.858601	0.751749	7.479258	-6.367040	0.000000	0.000000	28.316435	-1.279312	-2.328356	8.959405	-18.712823	121.046084	19.263786	18.019105	-0.224941	-3.930910	7.272365	-7.128213	154.618209	1.694977	4.156042	-0.063856	-12.916161
